PathFileType	4	(X/Y/Z)	C:/Users/beibeiliu/ov580/test_trc/capture2\sequence.3_training_dense_right.trc
DataRate	CameraRate	NumFrames	NumMarkers	Units	OrigDataRate	OrigDataStartFrame	OrigNumFrames
120	120	24	19	mm	120	176	350
Frame#	Time	ThumbCMC			ThumbMCP			ThumbIP			ThumbTip			IndexMCP			IndexPIP			IndexTip			MiddleMCP			MiddlePIP			MiddleTip			RingMCP			RingPIP			RingTip			PinkyMCP			PinkyPIP			PinkyTip			BackHand1			BackHand2			BackHand3	
		X0	Y0	Z0	X1	Y1	Z1	X2	Y2	Z2	X3	Y3	Z3	X4	Y4	Z4	X5	Y5	Z5	X6	Y6	Z6	X7	Y7	Z7	X8	Y8	Z8	X9	Y9	Z9	X10	Y10	Z10	X11	Y11	Z11	X12	Y12	Z12	X13	Y13	Z13	X14	Y14	Z14	X15	Y15	Z15	X16	Y16	Z16	X17	Y17	Z17	X18	Y18	Z18	
175	1.45833	120.66	-27.0259	-18.0148	109.82	-50.8171	-40.8007	104.544	-63.52	-64.6568	123.391	-70.2984	-81.188	122.53	-30.7804	-85.6085	117.067	-59.8945	-78.9465	124.255	-45.1927	-47.1435	141.302	-38.7202	-88.0891	132.046	-69.0154	-74.0701	139.351	-57.4143	-42.6467	158.254	-51.8498	-81.078	146.794	-70.3604	-59.48	149.935	-51.6888	-35.5882	171.892	-57.9475	-71.3691	157.509	-67.4883	-49.1073	159.806	-45.7492	-25.8609	180.28	-9.95241	-43.8064	179.051	-9.18828	-12.0634	149.764	1.24751	-27.6279	
176	1.46667	119.205	-36.08	-14.5418	109.501	-58.9997	-37.575	104.979	-72.5055	-63.6101	126.036	-75.5586	-80.5444	120.588	-40.9753	-84.5566	116.23	-68.6239	-75.9309	123.733	-55.6959	-46.5056	140.424	-47.2529	-87.8569	135.229	-75.1603	-74.1977	140.375	-62.7389	-40.3707	154.043	-54.7794	-80.3972	148.453	-75.394	-62.6643	150.978	-53.9719	-32.3374	172.479	-56.97	-70.8664	164.827	-74.079	-48.4943	161.798	-51.6916	-25.5913	172.597	-13.3388	-46.2898	175.197	-9.77402	-10.3789	142.314	-7.45673	-24.784	
177	1.475	114.803	-44.4938	-10.0453	106.66	-69.199	-33.0216	108.902	-77.9494	-61.0691	121.856	-84.6142	-82.0131	111.714	-48.0363	-81.0393	120.388	-75.3706	-72.8106	125.548	-61.0259	-45.2174	138.166	-47.4253	-84.4785	134.52	-79.8505	-72.7497	138.765	-66.3202	-37.273	157.97	-55.3352	-79.3817	153.612	-79.7096	-60.9172	150.172	-59.6171	-32.2727	174.338	-55.6431	-70.0547	163.243	-75.0513	-52.0443	156.503	-52.4562	-27.8309	164.762	-12.0372	-39.763	170.089	-9.81293	-8.83254	134.085	-10.4033	-20.1962	
178	1.48333	114.66	-49.0144	-8.02345	105.96	-74.365	-33.7199	102.631	-87.0424	-57.7818	120.163	-87.7015	-80.3482	108.924	-51.1719	-76.9379	118.729	-80.8162	-74.9253	125.503	-66.6304	-43.0444	133.203	-51.1155	-82.7615	135.995	-82.0314	-75.588	138.783	-68.9273	-37.1675	151.351	-57.869	-79.1795	156.235	-80.7749	-60.9699	151.781	-62.877	-32.4499	168.302	-52.4669	-69.8082	163.253	-75.4978	-51.9821	158.314	-57.7277	-25.2353	157.595	-14.7881	-40.4817	164.127	-10.3599	-10.5064	131.161	-16.5371	-20.6142	
179	1.49167	110.124	-53.3293	-8.16545	104.434	-75.4878	-28.7147	102.376	-85.9127	-51.3924	119.301	-85.2898	-73.9743	108.645	-57.9507	-80.1343	115.676	-85.6611	-74.1244	129.991	-75.7331	-47.254	129.94	-52.3765	-82.1556	139.977	-82.8143	-76.2965	141.891	-73.9873	-39.4415	152.534	-56.6907	-78.7347	152.036	-81.3518	-59.553	148.292	-62.0506	-31.429	164.146	-55.6665	-69.4964	163.113	-75.0511	-52.089	156.173	-56.2122	-24.2421	153.927	-14.5622	-38.727	159.446	-11.8604	-7.15928	124.281	-19.1681	-17.5236	
180	1.5	110.524	-55.8018	-3.53711	98.466	-75.162	-24.2393	99.0284	-79.1977	-54.2341	119.18	-76.7734	-74.0952	105.957	-58.0422	-75.1175	118.79	-88.7352	-78.7752	129.018	-90.5077	-47.3653	126.511	-57.7276	-81.5134	136.646	-85.808	-74.4043	141.197	-76.123	-38.6832	144.002	-57.0025	-76.1067	154.109	-82.0899	-56.5895	148.136	-65.7486	-30.9534	162.16	-50.2777	-69.4002	163.972	-74.8526	-50.9628	156.735	-56.5002	-24.5723	146.817	-14.0214	-41.8111	152.245	-10.246	-4.99589	118.896	-22.3653	-14.9458	
181	1.50833	107.085	-57.9337	-3.57924	95.7063	-74.3238	-26.3299	96.9498	-78.9492	-51.918	120.816	-72.7946	-68.2319	102.014	-61.4188	-74.8893	116.155	-90.3246	-79.4312	128.38	-94.6922	-51.3744	124.868	-55.7522	-80.5888	136.978	-86.2066	-75.516	136.917	-80.0781	-37.9761	146.346	-55.4276	-76.8014	154.405	-81.246	-57.9862	143.276	-66.8543	-31.0283	161.546	-53.1939	-70.3597	161.463	-73.519	-50.1545	153.833	-60.3231	-24.5445	138.697	-16.0845	-36.2552	145.079	-12.1778	-6.90855	117.097	-26.4236	-14.173	
182	1.51667	103.431	-59.0958	-0.791436	95.1425	-75.2104	-22.8352	96.1812	-78.1783	-57.2085	123.216	-70.7659	-68.8436	99.535	-63.8788	-76.9992	115.093	-89.7093	-80.7574	128.994	-94.4461	-52.9331	120.463	-55.885	-79.1409	136.037	-84.2838	-78.1064	135.1	-81.5793	-37.5827	140.034	-55.0723	-75.3107	151.927	-82.1515	-58.1306	145.494	-63.6629	-29.9294	158.185	-53.6538	-70.5379	158.695	-73.2115	-49.879	150.94	-60.2895	-24.4176	135.93	-15.0597	-39.4944	146.434	-12.0975	-5.06694	111.23	-25.2729	-13.5107	
183	1.525	105.643	-57.5384	-1.14773	94.9694	-74.9322	-25.2874	94.6007	-79.154	-54.0618	121.706	-70.7773	-69.1554	100.412	-59.0422	-73.6512	110.548	-89.5685	-80.1638	125.098	-98.1079	-52.3093	122.219	-55.0769	-79.9283	135.467	-85.7738	-75.9664	137.539	-78.8728	-39.0338	141.45	-58.5327	-77.3497	149.362	-81.4302	-56.6969	141.991	-65.1805	-30.415	159.739	-49.4093	-68.8331	160.947	-72.503	-49.412	146.899	-55.8433	-23.8579	135.667	-14.1287	-37.825	144.026	-11.5439	-3.82167	109.485	-26.2865	-14.3254	
184	1.53333	101.668	-58.4822	-2.20342	95.3751	-72.9186	-26.3763	95.5718	-77.9904	-54.9771	120.565	-69.2786	-65.993	97.4346	-62.6795	-74.306	112.167	-90.4683	-79.5904	126.961	-95.9467	-51.9761	120.919	-56.5102	-81.0634	134.905	-82.6096	-78.0982	136.125	-79.4623	-37.6269	139.357	-55.1526	-74.6717	146.468	-81.0238	-58.8107	142.082	-63.3692	-30.0743	155.266	-48.2987	-67.2908	163.002	-72.0621	-49.241	152.154	-55.8643	-23.2891	133.857	-16.072	-35.5138	138.295	-12.481	-5.23923	110.036	-27.1426	-13.0088	
185	1.54167	103.891	-58.0764	0.348394	92.9053	-76.0826	-23.1618	96.6565	-76.8559	-51.7074	119.923	-69.1635	-67.1762	98.0357	-62.5885	-75.4255	110.07	-87.9905	-81.6386	126.757	-93.4283	-48.228	116.929	-58.4809	-81.3078	134.628	-83.9705	-74.6003	135.701	-79.9371	-40.7055	140.326	-57.5825	-76.1756	150.303	-78.4684	-61.776	139.367	-65.2359	-30.519	153.821	-46.4316	-67.2299	159.086	-71.6088	-49.5274	151.738	-55.9495	-24.3907	132.14	-15.2661	-37.4397	140.725	-11.7664	-1.38898	108.123	-26.2978	-10.5003	
186	1.55	103.528	-56.3702	1.21227	92.5134	-73.4302	-24.8354	95.9597	-73.9723	-54.5679	118.695	-67.2539	-68.7437	96.4692	-58.8411	-72.9504	109.549	-87.6244	-79.8824	124.375	-92.4837	-50.1674	116.77	-54.0317	-79.4888	130.407	-83.2248	-78.147	133.455	-77.9241	-37.7099	141.342	-54.7592	-77.0557	149.256	-76.9747	-60.4904	139.298	-63.7277	-30.9402	158.141	-48.1542	-70.1982	156.392	-70.0339	-51.3624	147.552	-56.986	-25.1206	132.894	-13.4653	-35.1438	140.503	-8.07597	-3.94363	106.696	-23.7703	-16.1319	
187	1.55833	103.273	-53.0456	0.890715	93.7685	-67.9561	-26.3895	93.4094	-73.6907	-53.4574	117.456	-66.3384	-70.6633	99.3873	-53.7865	-74.7983	108.732	-87.2139	-80.4118	124.66	-90.7289	-51.8933	118.62	-51.7136	-80.2724	129.554	-83.2411	-74.3167	133.005	-75.2019	-39.1006	139.326	-54.1388	-77.4479	145.32	-76.6815	-61.8047	138.084	-59.4819	-30.4318	158.322	-49.2147	-70.4853	159.419	-69.3533	-48.2046	147.162	-51.7313	-22.7637	137.193	-8.80492	-36.4837	140.232	-6.8277	-7.27264	108.39	-21.4779	-16.9346	
188	1.56667	104.062	-49.1087	-0.803445	89.7506	-66.2815	-26.5702	95.6499	-66.2998	-57.6134	120.198	-61.4944	-70.5196	97.3427	-52.561	-77.2415	109.731	-81.9706	-80.8977	123.077	-87.8378	-52.7243	117.933	-50.9966	-83.5696	132.542	-77.7969	-79.6143	132.857	-73.4297	-39.4485	138.095	-51.181	-76.9887	146.962	-75.6088	-61.4256	140.451	-57.0047	-31.1378	154.748	-45.698	-69.1318	155.034	-68.8743	-49.5939	144.446	-49.6356	-24.249	139.908	-8.90231	-35.632	141.059	-5.42328	-8.67355	114.007	-15.4831	-14.5312	
189	1.575	99.8069	-45.5403	-4.88556	91.0509	-58.5938	-32.4239	98.5941	-60.1619	-63.1942	126.905	-53.3185	-68.294	98.2547	-45.8285	-75.6098	106.774	-78.2448	-81.6437	118.356	-85.3883	-53.6809	118.541	-45.6126	-84.5528	127.881	-77.8689	-77.1784	131.309	-74.5235	-42.3126	138.943	-49.6948	-79.33	143.041	-72.0082	-61.5632	141.963	-53.5516	-33.4746	159.295	-40.8211	-70.2241	153.247	-64.4967	-50.3936	146.8	-47.1826	-27.9451	141.809	-3.87097	-37.9635	143.183	-2.51422	-6.93109	111.585	-13.6159	-16.376	
190	1.58333	102.303	-40.1331	-3.34279	92.2857	-51.9405	-34.4322	100.39	-53.793	-61.9403	130.874	-45.9822	-69.4461	97.3096	-41.078	-78.9775	106.131	-70.9346	-84.1467	119.009	-79.225	-53.2607	119.468	-37.2066	-83.7269	130.227	-70.868	-79.4553	133.1	-67.284	-42.5718	139.001	-44.7976	-80.4272	143.185	-66.7036	-63.8915	138.975	-46.5218	-33.7111	155.015	-35.2677	-71.0781	154.328	-60.7088	-53.5604	148.297	-42.4312	-29.2385	143.355	-0.675264	-41.6258	145.709	1.08074	-6.03562	111.281	-8.17272	-17.7151	
191	1.59167	102.596	-34.3629	-10.3087	93.4239	-47.9073	-32.4773	101.24	-48.3002	-66.8985	127.003	-43.3583	-73.0454	101.544	-37.0311	-83.2479	107.855	-65.0165	-86.5924	118.299	-75.7911	-58.5069	121.676	-36.2492	-88.5231	130.278	-64.6874	-83.5612	131.561	-64.3984	-45.5525	141.389	-35.4434	-81.6621	142.964	-61.9037	-65.3943	137.335	-44.4867	-36.7537	158.804	-33.483	-74.7329	158.303	-56.2608	-53.6095	145.091	-36.296	-30.981	139.399	4.95434	-41.0436	144.426	3.91668	-8.46999	115.304	-3.77616	-22.8805	
192	1.6	101.196	-31.3745	-10.4374	89.7978	-46.417	-36.7251	100.933	-43.6625	-65.2447	125.234	-40.7034	-74.8178	97.6442	-33.0083	-82.4331	109.942	-58.622	-89.9905	120.732	-69.7225	-56.9406	122.131	-31.2758	-89.5769	129.394	-61.6133	-82.8581	131.154	-60.5785	-46.2651	139.541	-35.8865	-83.4686	147.207	-58.1724	-66.6432	135.934	-39.5112	-37.3522	154.676	-30.782	-74.7164	156.765	-52.4512	-54.0525	150.631	-32.9295	-30.2598	141.335	6.98416	-42.4875	143.282	7.72725	-13.1552	113.324	0.0239115	-18.9205	
193	1.60833	104.893	-28.5544	-8.7406	91.1685	-41.8524	-39.0249	94.9039	-45.4565	-62.8344	122.067	-39.3097	-77.6485	99.4114	-27.2987	-82.0761	108.258	-56.7341	-91.2035	119.087	-66.9757	-58.6665	120.677	-29.3744	-89.7986	128.709	-56.9448	-86.4867	131.251	-56.3632	-49.468	142.318	-27.4638	-83.2682	143.638	-54.8605	-66.0559	137.192	-36.0392	-37.4615	161.649	-25.0192	-75.4466	158.359	-48.5854	-52.831	149.836	-26.3489	-30.8971	143.539	12.7153	-46.9544	148.849	13.4665	-11.3086	115.15	3.21218	-20.0428	
194	1.61667	101.876	-26.4807	-10.1555	89.596	-40.13	-37.9466	93.0086	-41.9944	-66.7321	118.415	-38.3045	-77.8471	102.729	-25.7005	-86.9939	109.532	-55.0397	-91.6189	123.661	-62.3972	-63.1908	124.142	-26.1695	-92.4466	133.825	-54.8898	-85.1771	132.918	-51.6313	-48.6845	143.24	-27.6438	-83.8995	147.81	-52.1727	-67.8291	142.225	-36.0247	-38.7242	156.708	-26.371	-75.8064	160.339	-46.0953	-56.4189	147.266	-28.9684	-33.6282	142.958	12.2756	-46.5332	147.521	15.4094	-13.0196	114.119	6.18616	-23.735	
195	1.625	103.935	-22.5868	-13.5241	92.6776	-36.2543	-38.9688	93.8087	-40.1223	-63.7673	118.56	-35.7668	-76.0283	101.946	-23.7786	-86.9556	107.784	-52.8996	-92.655	118.197	-62.4438	-60.1237	120.532	-23.943	-91.5473	130.421	-53.4223	-84.8097	135.13	-48.4183	-50.1304	144.943	-26.7535	-84.6195	147.37	-50.5064	-69.0503	140.128	-33.52	-39.2635	158.911	-24.6403	-77.0275	160.594	-44.7125	-56.2153	144.652	-24.9245	-32.68	141.66	13.0764	-42.9668	148.636	15.0464	-13.3161	117.063	7.33623	-22.7416	
196	1.63333	104.1	-22.06	-12.116	92.7699	-34.4699	-38.9153	94.3568	-37.908	-64.0911	116.383	-35.1832	-80.756	100.301	-21.7398	-88.1283	107.87	-49.8342	-93.0287	118.244	-61.4369	-62.9202	122.462	-23.073	-92.3651	131.479	-52.195	-84.8897	131.767	-43.6715	-47.1936	141.146	-24.078	-85.3692	147.997	-49.8904	-68.4227	142.093	-31.9874	-39.6831	156.598	-21.2856	-75.7973	157.201	-43.1554	-53.6441	150.464	-25.296	-30.0727	146.183	17.9608	-46.8628	151.003	16.2798	-10.8123	118.045	8.9636	-24.2618	
197	1.64167	104.312	-20.6787	-10.9788	90.479	-32.9855	-40.427	91.8426	-35.5476	-67.0829	114.779	-34.1951	-78.3535	100.72	-18.4799	-86.1242	109.461	-49.2887	-92.4976	121.812	-57.2412	-65.9999	119.71	-17.0826	-90.0401	128.755	-48.1916	-88.8487	132.144	-40.3859	-48.3902	139.641	-21.7362	-85.1642	147.093	-47.3011	-67.9064	138.731	-32.4763	-41.3182	161.296	-17.9681	-77.4275	156.335	-41.0422	-55.1294	146.728	-22.4861	-34.7744	143.897	17.1861	-46.7283	146.804	16.9812	-9.91815	113.511	11.5957	-23.6277	
198	1.65	105.003	-17.6398	-12.2703	92.1549	-31.5205	-35.1616	91.9125	-33.853	-65.6486	116.416	-30.6897	-83.7809	97.6933	-14.7907	-85.0806	109.911	-45.5531	-94.0039	119.084	-56.4379	-62.5272	123.684	-15.0945	-92.6374	127.234	-47.2649	-86.5577	130.508	-40.4685	-50.018	142.202	-17.6505	-85.6351	145.213	-45.1006	-68.7814	138.184	-30.8002	-43.1707	158.513	-16.2723	-78.7211	157.435	-37.7065	-56.0034	148.872	-20.8037	-33.715	143.191	20.4933	-45.0806	144.428	22.1004	-15.6858	116.794	13.7643	-23.7708	
